<?xml version="1.0" encoding="utf-8"?>
<!-- Generator: Adobe Illustrator 19.0.0, SVG Export Plug-In . SVG Version: 6.00 Build 0)  -->
<svg version="1.1" id="svg" xmlns="http://www.w3.org/2000/svg" xmlns:xlink="http://www.w3.org/1999/xlink" x="0px" y="0px"
	 viewBox="0 0 264.2 188.8" style="enable-background:new 0 0 264.2 188.8;" xml:space="preserve">
<g id="XMLID_6_">
	<path id="XMLID_1_" d="M55,161.6H1V1.6c0,0,45-4.3,69,10.7s32,28.3,35,33.3S111.7,61,121.3,61s16.7-2.3,26-19.7
		C156.7,24,168.7-0.2,196,1s40.1,17.9,47,26.2c8.3,10,19.3,39.4,18,67.1c-4.3,56.7-38,84.9-38,84.9s25.7-34.4,18.7-84.9
		c-5-25.3-17.3-50.7-42.7-55.1s-39.7,5.3-68.7,49c-4.3,6.7-17.7,20.4-23,1.9c-5.3-18.5-11-43.9-24-58.2S64,14.3,46.7,27
		c5.3,4.7,10,10,0,24.3S9.7,109.4,32.3,139C46.3,157.3,55,161.6,55,161.6z"/>
	<path id="XMLID_3_" d="M136.5,175.6c0,0,3.6,6.9,14.5,6.8s20.8-6.2,21.5-6.8s5.2-0.4,1.4,3.4s-11,8.6-23,8.7s-14.9-3.6-15.5-4.4
		S132.8,174.1,136.5,175.6z"/>
	<path id="XMLID_4_" d="M211.7,157c0,0,5.3-0.3,5.7-5.7c0.3-5.3-5.3-6.3-7.3-3.3s-9.3,7.9-13.5,10.5s-18.6,4.9-18.6-2.4
		s-2-8.8-6.1-5.1s-14.6,10.3-25.4,10s-14.3-5.8-14.3-5.8s-9,12.8-20,12.4s-19.6-7-14.4-15.5s17.8-11.9,17.9-23.2s-12.6-19-13.8-19.6
		s-0.9-3.6,3.1-1.2c4.1,1.8,14.5,3.9,19,17.8c0,0,1.8,2.9,1.9-0.5s-0.9-8.8,1.1-10.8c2-2,6.9-8.1,6.9-8.1s3.5-4.4,3.1,4.8
		s-1.6,29.6-1.6,29.6s0.2,12.9,12.1,13s35.8-21.2,35.8-21.2s5.4-3.3,2.2,4s-5.2,14.4-3.1,15.6s8.4,3.5,17-5.5s13.9-17.6,18-13.6
		c4.1,4,10.2,10,9.5,17.2s-5.4,10.1-10.1,10.4S209.8,158.7,211.7,157z M121.1,141.3c0,0-3.6,7.2-10.5,9.8s-10,9.1-2.8,10
		s12.2-2.5,14.9-6.8s4.1-6.5,3.4-13S124,135,121.1,141.3z"/>
	<path id="XMLID_7_" d="M77.2,127.8V140c0,0,7.6,1.5,6.8,11.8S68.2,163,68.2,163s-2,1.4,0,1.6s15.9,0.9,20.2-4.4
		c4.1-4.9,4.2-6.5,4.4-12.2S85.7,127.8,77.2,127.8z"/>
</g>
</svg>
