<?xml version="1.0" encoding="utf-8" ?>
<!-- Generator: Adobe Illustrator 19.0.0, SVG Export Plug-In . SVG Version: 6.00 Build 0)  -->
<svg version="1.1" id="svg" xmlns="http://www.w3.org/2000/svg" xmlns:xlink="http://www.w3.org/1999/xlink" x="0px" y="0px"
     viewBox="0 0 1042 537" style="enable-background:new 0 0 1042 537;" xml:space="preserve">
<g id="_x23_231f20ff">
<path d="M496,0h1.1c3.8,7.8,7.1,16.2,7.2,25c0.7,8.8-3.9,16.8-9.4,23.3c-1.6,1.8-3.6,3.9-6.3,3.7c-6.6-0.3-13.5-2.6-19.9,0.1
		c-11,4.2-16.8,15.2-24.9,23.1c-4.2,3.8-7.8,8.2-12,12c-2.6,2.2-6,4.3-9.6,3.4c-5.5-1.4-8.8-6.7-13.7-9.2c-2.1,0.3-3.6,2-5.1,3.4
		c-5.9,5.8-11.8,11.5-17.9,17.1c-10.5,9.5-22.3,17.3-34.2,24.8c-18.5,11.5-38.2,21-58.7,28.4c-17.1,6.2-34.8,10.6-52.5,14.4
		c-16.3,3.4-32.8,6.2-49.5,7.1c-20.6,0.8-41.6-0.6-61.4-7c-11.8-3.6-21.3-11.7-28.8-21c-4.2,10.3-8.6,20.8-16,29.3
		c-3.8,4.3-8.6,8.3-14.3,9.6c-3.6,0.8-7.8,0.3-10.5-2.4c-3.9-3.7-4.9-9.2-6.3-14.2c-5,6.4-11.4,12.3-19.5,14.4
		c-11.3,2.9-24.8,1-33.2-7.6v-3.2c5.7-2,11.9-1.2,17.8-2.6c10.7-2.4,20.9-7.4,28.8-15.1c7.7-7.3,14.4-16.7,14.8-27.7
		c0.7-5.9-1.5-12,0.9-17.7c2.9-8.3,6.1-16.5,9.3-24.7c1.2-3.2,2.7-6.4,4.5-9.3c0.2,7.9-0.8,15.8-1.2,23.7
		c-1.4,19.1-4.6,39-15.5,55.2c2.8,2.5,5.9,5.1,9.8,5.5c6.4,0.6,13.2-2.4,16.6-8c3.9-6.9,3.6-15.2,4.4-22.9c1.1-18.6,2.8-37.5,9.5-55
		c2.6-6.5,5.3-13.3,10.3-18.4c1,12.7-5.1,24.8-4,37.5c0.7,6.5,3.1,12.7,6.9,18c5,7.2,12.6,12,20.5,15.5c16.8,7.4,35.3,9.6,53.5,10.3
		c36.5,1.2,72.7-5.4,107.7-15.1c18.1-4.9,35.8-11.3,52.7-19.3c22.1-10.3,42.6-23.7,61.4-39.1c4.8,3.5,10.8,6.1,16.8,4.4
		c6.9-2,12.8-6.4,18.6-10.5c10-10.6,16.8-24.3,28.9-32.9c3.2-2.5,8.1-2.9,10.1-6.9C487.5,12.7,491.7,6.3,496,0z" />
<path d="M661,13c4.3,1,8.9,4.2,9.1,8.9c-2.2,5.8-6.6,10.7-11.5,14.4c-3.2-1.7-6.3-3.4-9.7-4.7c-2.6,3.8-5.4,7.7-9.3,10.2
		c-3.8-1.8-7.6-3.6-11.7-4.9c4-5.9,7.9-11.9,12.2-17.6c4.5-1,8.5,2.5,12.1,4.8C655.1,20.4,657.9,16.7,661,13z" />
<path d="M613,43.3c4.4-1.2,8.8,2.4,11.8,5.5c2,1.8,0.4,4.1-0.6,5.9c-2.1,3.7-4.7,7.2-7.7,10.3c-1.3,1.1-2.9,2.7-4.7,1.7
		c-3.5-1.4-6.9-3.1-10.5-4C605.1,56.2,608.8,49.6,613,43.3z" />
<path d="M678.8,63.3c4-2.1,7.9-4.5,12.2-5.9c-1,5-4.2,9-7.2,12.9c-2,2.6-4.6,4.9-7.6,6.4c-12.8,6.5-25.6,12.9-38.3,19.7
		c-8.2,4.7-17.4,8.6-23.2,16.3c10.1,0.7,19.9-3.5,30-2.7c1.1,5-2.9,8.8-6.1,11.9c-8.9,7.8-17.7,15.6-26.5,23.5
		c-3.9,3.5-7.6,7.4-12.5,9.6c-8.1,3.9-16.6,6.9-25.2,9c-6,1.3-12.7,2.3-18.5-0.4c-3.2-1.4-5.3-4.4-7.4-7.1
		c-5.4,6.1-11.4,11.6-17.2,17.2c-9.9,7.9-22,13.5-34.7,14.4c-8.8,0.7-17.4-1.9-26.1-2.6c-2.3-0.2-4.3,1.2-6.3,2.2
		c-10.8,5.7-19.7,14.3-27.9,23.2c-16.9,18.8-32.4,38.8-49.7,57.2c-16.9,18.4-36.6,34.5-58.7,46.4c-24.5,13.1-52.4,21.3-80.3,19
		c-10.7-0.9-22.2-2.7-30.7-9.9c-2.2-1.8-4.5-5.4-2-7.9c4.4-3.3,10.4-2.5,15.5-2.6c53.6,1.2,107.9-18,147.4-54.6
		c12.3-11.3,23.8-23.5,35-36c16.1-18.3,31.7-37.5,52.3-50.9c7.7-6,18-7.5,27.3-5.3c6.9-7.2,12.7-15.6,20.5-21.9
		c3.6-2.8,7.8-5.5,12.5-5.5c3,0.1,6.7,1.8,7,5.1c0.6,5.7-2.5,10.9-5.2,15.7c-3.5,6.2-8.2,11.6-12.9,17c6.2-3.1,11.8-7.3,16.9-12.1
		c4.3-5,9.2-9.5,13.2-14.8c2.4-3.2,4.4-6.7,6.5-10c4.5,2.6,8.3,6.5,13.4,8c8.3-8.8,14.8-19.4,24.8-26.3c3.8-2.8,9.2-4.3,13.4-1.5
		c2.3,1.9,1.7,5.3,0.9,7.8c-3.4,9.9-10,18.3-16.3,26.4c7.8-3.2,14.5-8.4,20.8-13.9c6.3-5.4,12.7-10.7,18.7-16.5
		c-5.6,0.3-11.3,1.6-17,0.9c-1.9-0.2-4.2-1.5-3.8-3.8c0.5-4,2.5-7.6,4.8-10.8c6-8.5,13-16.5,21.6-22.4c3.8-2.7,8.1-4.5,12.3-6.6
		C656,75.3,667.5,69.4,678.8,63.3 M580.4,134.8c-4.4,4.3-8.7,8.7-12.4,13.5c11.4,0.6,22.3-6,28.5-15.4c-2.1-1.2-4.3-2.9-6.9-2.8
		C585.9,130.1,582.8,132.4,580.4,134.8 M505.9,155.4c-3.5,3.8-7,7.7-10.1,11.8c11.2,0.6,22.4-5,28.5-14.4c-2-2.2-4.7-4.2-7.8-4
		C512.2,149.4,508.8,152.5,505.9,155.4z" />
<path d="M27,88.5c2.7,1.4,5.6,3,7.3,5.7c4.5,6.6,4.7,15.2,3.2,22.8c-2.6,10.7-7.5,21-14.6,29.5c-5.5,6.5-13.7,10.9-22.4,10.9v-3.2
		c5.4-7,13.1-11.7,19.5-17.7c3-2.9,7.4-5.8,6.8-10.5c-0.9-6.6-6-11.5-11.1-15.4C19.2,103.2,22.7,95.6,27,88.5z" />
<path d="M898.9,111.2c4.6-0.7,9.7,4.1,9.4,8.6c-2.5,5.5-6.3,11.1-11.8,13.9c-3.1-1.3-6-3.2-9.2-4.5c-2.7,3.5-5,7.8-9.1,9.8
		c-4.2-0.5-7.9-3.4-12.1-4.4c4.1-6.1,8.3-12,12.4-18.1c4.5,0.4,8.5,2.5,11.8,5.4C893.4,118.4,895.9,114.6,898.9,111.2z" />
<path d="M839.6,160.3c4-6.7,8.1-13.4,12.1-20.1c5,0.7,10.1,3.4,12.7,7.9c-1.1,4.2-3.9,7.8-6.5,11.2c-1.8,2.1-3.6,4.6-6.4,5.4
		C847.5,163.2,843.7,161.2,839.6,160.3z" />
<path d="M918.7,160.2c3.6-1.9,7-4,10.9-5.2c-1.4,5.6-5,10.2-8.6,14.6c-3,3.6-7.4,5.4-11.5,7.4c-12.4,6.3-24.7,12.6-36.9,19.2
		c-7,3.9-14.5,7.7-19.4,14.2c8,0.4,16-1.4,23.8-2.7c2-0.1,4.7-0.9,6.1,1c0.8,2-0.2,4.1-1.3,5.7c-3,4.3-7.2,7.5-11.1,10.9
		c-8.1,7.2-16.3,14.4-24.3,21.6c-6.6,6.4-15.6,9-24,12.1c-8.3,2.5-17.2,5.4-25.9,3.1c-4.3-1-7.2-4.6-9.6-8c-5,6.1-11,11.2-16.5,16.8
		c-12.7,10.5-29.6,17-46.2,14.4c-5.8-0.5-11.5-2.5-17.4-2c-11.5,4.9-20.9,13.6-29.5,22.5c-24.5,26.5-45.5,56.3-72.9,80.1
		c-24,20.6-52.6,36.8-83.9,43.1c-14.9,2.9-30.4,3.4-45.4,0.7c-7.5-1.4-15.2-4-20.6-9.5c-2.1-1.8-3.2-5.9-0.2-7.5
		c4-2.3,8.8-2,13.3-2.1c40.6,1.1,81.5-9.3,116.3-30.2c26.4-15.7,47.6-38.4,68-60.9c14-15.9,27.6-32.5,44.7-45.3
		c5.7-3.9,11.1-8.6,18-10.2c5.4-1.5,11.1-0.8,16.6,0c7.3-8.1,13.7-17.3,22.7-23.6c4.2-2.8,9.9-5.4,14.7-2.4
		c3.6,2.2,2.6,7.2,1.4,10.5c-3.7,9.8-10.3,18.2-17.3,25.8c6.4-2.9,12-7.3,17-12c4.2-5.1,9.2-9.5,13.2-14.9c2.4-3.2,4.3-6.7,6.6-10
		c4.5,2.4,8.2,7.7,13.6,7.4c8.5-8.6,14.8-19.5,25.1-26.1c3.6-2.4,8.8-3.7,12.7-1.1c2.6,2.1,1.5,5.8,0.7,8.6
		c-3.7,9.8-9.9,18.4-16.8,26.1c7.4-3.1,14-7.7,20-13c7-5.9,13.9-11.9,20.7-18c-5.6,0.6-11.3,1.8-16.9,1.2c-1.9-0.3-4.6-1.1-4.2-3.5
		c0.3-4.1,2.5-7.9,4.8-11.3c7.2-10.2,16-19.9,27.3-25.7C890.6,174.9,904.7,167.6,918.7,160.2 M818.3,232.8c-4.2,4.2-8.4,8.5-12,13.2
		c11.3,0.3,22.7-5.9,28.5-15.7c-2.5-1.3-5.2-3.1-8.2-2.5C823.2,228.3,820.6,230.6,818.3,232.8 M749.8,248.4
		c-6.2,4.4-10.8,10.7-15.6,16.5c10.3,0.4,20.6-4.2,27.1-12.2c0.7-0.9,1.4-2,0.8-3.1C759,246.1,753.5,245.6,749.8,248.4z" />
<path d="M552.9,204.9c4.2,0.9,8.2,3.8,9.2,8.1c-1.7,6.3-6.6,11.3-11.7,15.3c-3.1-1.8-6.3-3.5-9.6-4.7c-2.6,3.8-5.4,7.7-9.3,10.2
		c-3.8-1.8-7.6-3.6-11.6-4.8c4.2-6,7.8-12.6,12.8-18c4.4,0.1,8.1,2.7,11.5,5.1C547.1,212.3,550,208.6,552.9,204.9z" />
<path d="M228.4,235.2c4.4-5.6,8.7-11.3,13.1-16.9c6.4,0.7,12.4,5.5,14,11.8c-0.6,5.2-4.4,9.4-7.5,13.5c-3.1,3.4-5.8,7.8-10.5,9.2
		c-4.7-2.1-8.9-5.3-14-6.8c-3.7,5-6.9,10.6-12.2,14.1c-2.5,1.9-5.3-0.2-7.7-1.3c-3.7-2.1-7.7-3.4-11.8-4.3
		c6.2-9.1,12.5-18.3,18.8-27.4C217.5,227.5,223.6,230.6,228.4,235.2z" />
<path d="M587.3,245.6c4-6.8,8-13.5,12.2-20.2c4.6,0.9,9.1,3.1,11.9,6.9c1.2,1.6-0.2,3.2-0.8,4.7c-2.8,5-6.3,9.9-11.1,13.2
		C595.5,248.5,591.5,246.7,587.3,245.6z" />
<path d="M650,241.5c1.6-2.8,3.8-6.4,7.5-6.3c4.9,0.6,8.2,5.3,8.9,9.9c1.2,7.9,0.3,16-2.1,23.6c-3.6,10.7-9.7,21.3-19.3,27.7
		c-4.3,2.6-9.2,5-14.4,4.9c-2.3,0.4-3.5-2.3-3-4.2c0.3-2.8,2.7-4.7,4.9-6.1c7.2-4.6,14.7-9.1,20.4-15.6c1.9-1.9,2.6-4.6,2.9-7.2
		c-3.5,0.5-7.2,1.6-10.6,0.1c-2.4-0.9-4.6-3.4-3.7-6.1C642.9,254.8,646.6,248.1,650,241.5z" />
<path d="M553,253.5c3.8-0.8,8,0.6,10.1,3.9c5.2,7.4,4.3,17.1,2.3,25.4c-4.5,16.3-13.5,31-24.4,43.8c-19.6,22.9-44.8,40.6-72.2,52.7
		c-20.4,9.3-42.4,14.8-64.7,17c-18.5,1.6-37.6,2.3-55.8-2.1c-11.9-2.9-23.8-8.8-30.8-19.2c-2.8-4.1-4.7-9.7-2.2-14.4
		c2.8-1.1,5.8,0.2,8.4,1.2c17.7,7.4,36.7,11.5,55.8,12c20,0.3,40.1-1.1,59.5-5.6c17.7-4,34.8-10.3,50.9-18.8
		c16.4-8.5,32.2-18.6,45.8-31.3c8.2-7.9,16.1-16.6,21.2-26.8c1.6-2.8,2-6.8-0.7-9.1c-2.2-2.6-5.5-0.2-8.2,0.1
		c-2.8,0.9-7.3,0.1-7.4-3.6c0.2-5.8,3.4-10.9,5.5-16.2C547.9,259.4,549.2,254.9,553,253.5z" />
<path d="M592.2,279.7c1.4-2.8,3.6-6.5,7.3-6.1c6.3,0.8,11.1,7.1,11.2,13.3c0.2,7-1.8,13.9-5.4,19.9c-5.4,8.8-13.9,14.8-20.9,22.1
		c-4.9,9.6-11,18.8-19.2,25.9c-4.3,3.6-9.9,6.6-15.7,5.7c-1.9-0.2-3.9-1.5-3.9-3.6c-0.2-3.4,3.2-5.4,5.8-6.9c9.4-4.9,20-9.3,25.4-19
		c-4.6-0.8-10.1-0.2-13.5-3.8c-2.6-2.9-1.5-7.1,0.1-10.2c2.6-5.3,5.4-10.5,8.7-15.4c1.6-2.4,4.1-4.8,7.2-4.2c3.4,0.6,6,3.4,7.6,6.3
		c1.8,3.8,1.2,8,1.3,12.1c4.5-3.9,9.4-7.7,12.4-13c1.2-1.8-0.4-3.4-1.1-5c-2.5,1.3-4.9,3.5-7.8,3c-2.8-0.2-6.5-2.1-5.7-5.4
		C587.2,289.8,589.9,284.8,592.2,279.7z" />
<path d="M709.7,307.6c4.5,0.7,8.9,2.9,11.7,6.6c1.8,2.3-0.8,4.9-1.7,7c-2.8,4-5.5,8.9-10.2,10.9c-4.1-1.3-7.8-3.5-12-4.3
		C701.5,321,705.5,314.2,709.7,307.6z" />
<path d="M678.6,373.1c26.8-14.9,54.3-28.8,83.3-38.9c-0.1,5.7-2.6,11-5.2,16c-1.2,2.3-2.9,4.6-5.4,5.6
		c-29.7,12.8-59,26.7-87.2,42.7c-25,14.5-49.6,30.4-69.9,51.1c-11.1,11.6-21.3,25-24.9,41c-0.8,4.1-1.8,9,0.9,12.7
		c2.7,4.1,8.1,5.3,11,9.1c1.4,5.5-1.5,11.2-5.1,15.1c-2.6,3-7.5,3.1-10.2,0.2c-3.5-3.6-4.5-8.8-5-13.7c-0.7-12.6,2.8-24.9,7.1-36.6
		c7-18.7,18.3-35.6,32.5-49.5C623.5,405.8,650.9,388.8,678.6,373.1z" />
<path d="M749.9,383c4.3,1,8.9,4.2,9.1,8.9c-2.2,5.8-6.6,10.6-11.5,14.4c-3.2-1.7-6.3-3.4-9.7-4.7c-2.6,3.8-5.4,7.7-9.3,10.2
		c-3.8-1.8-7.6-3.6-11.7-4.9c3.8-5.7,7.7-11.5,11.7-17.1c0.7-1.2,2.4-0.8,3.5-0.6c3.4,0.8,6.3,2.9,9.1,4.8
		C744.1,390.4,746.9,386.6,749.9,383z" />
<path d="M983.8,389.3c3.7-2,7.6-3.9,11.9-4.4c-0.1,1.8,0.1,3.8-1,5.3c-4.8,7.5-11.8,13.7-20.2,16.8c-10.8,5.8-20.5,13.5-30.5,20.5
		c-14.6,10.4-29.8,19.9-45.5,28.4c-15.8,8.6-33,14.6-50.7,18.3c-21.5,4.2-43.3,7.7-65.3,6c-9-0.9-18.4-0.5-26.7-4.5
		c-5.7-2.2-10.6-5.9-15-10.1c-1.4-1.8-3.4-0.1-4.4,1.2c-5.7,6.9-9.5,15.8-17.3,20.7c-7.2,2.9-16.8-0.9-19.9-8.1
		c-2.1-4.5-2.6-9.6-2.3-14.5c0.9-12.8,3.7-25.4,8.5-37.2c1.1-2.7,2.7-5.3,4.3-7.7c0.7,0,2,0.1,2.7,0.2c-1.6,10.6-6.1,20.9-5.2,31.8
		c0.4,5,2.7,10.7,7.9,12.5c4.1,1.4,8.9,1.8,12.8-0.1c6.4-4.1,9.8-11.8,16.8-15.3c4.6-2.3,9.4,0.8,13.9,1.7c19.2,4.9,39.3,5.2,59,4
		c24-1.5,48.2-5.4,70.8-14c24.4-9.1,47.5-21.4,69.2-35.8C966.2,399.6,974.8,394.1,983.8,389.3z" />
<path d="M936.6,454.1c1.5-3.3,2.9-7.3,6.7-8.4c0.4,5.3-1.9,10.2-2.9,15.2c-1.6,7.2-3.2,14.8-1,22c1.1,3.8,3.9,7.2,7.8,8.2
		c8,2.6,17.1-0.5,22.4-6.9c2.7-7.9,6.3-15.7,12.7-21.3c4-3.6,9.5-5.3,14.8-4.6c2.7,1.4,4.7,4.9,8.2,4.1c3.5-1.6,5.4-5.2,8.2-7.7
		c-0.4,5.8-2.3,11.8-6.1,16.2c-2.3,2.8-6.3,4.2-9.9,3.4c-3-1.3-5.5-4.2-9.1-3.8c-3.5,0.2-8,1.7-8.9,5.5c-0.3,1.9-0.8,4.4,1.1,5.6
		c2.1,2,6.2,2.6,6.1,6.2c-0.1,5.2-3.8,9.7-7.7,12.7c-3.5,0.6-6.9-2.1-10.6-1.8c-3.5-0.2-5.7,2.9-8,5.1c-3.8,3.8-7.2,8.5-12.4,10.6
		c-6.6,1.1-14.1-1.9-17.2-8c-2.7-5.1-3.1-11-2.6-16.6C929.2,477.7,931.9,465.5,936.6,454.1z" />
<path d="M912.7,469.3c0.9-2.2,2.2-4.1,3.8-5.8c0,5.7-2.4,11-4.1,16.4c-4.6,13.3-10.8,26.9-21.9,36.1c-4.3,3.5-10.1,6.5-15.7,4.5
		c-2.5-1-2.2-4.2-1.3-6.3c1.6-3.1,4.8-4.8,7.6-6.6c7.2-4.2,14.5-8.7,19.8-15.3C906.3,485.5,909.4,477.3,912.7,469.3z" />
<path d="M1017.5,508.3c3.9-6.8,8-13.5,12.2-20.2c5,0.9,9.2,3.9,12.9,7.3v1.8c-3.6,5.8-7.2,11.8-12.9,15.8
		C1025.7,511.2,1021.7,509.5,1017.5,508.3z" />
<path d="M993.8,519.1c3-3.7,5.9-7.5,8.8-11.2c4,1.2,8.2,3.7,9.2,8.2c-1.6,6.3-6.6,11.1-11.3,15.3c-3.2-1.6-6.5-3.3-9.8-4.8
		c-2.6,3.8-5.6,7.3-9,10.4h-1.3c-3.4-2.1-6.9-3.9-10.8-4.9c4-6.2,8.3-12.2,12.4-18.3C986.3,514.5,990.3,516.4,993.8,519.1z" />
</g>
</svg>
